<svg width="42" height="41" viewBox="0 0 42 41" fill="none" xmlns="http://www.w3.org/2000/svg">
<g clip-path="url(#clip0_4_571)">
<path d="M36.0824 12.2908H4.15022C3.01858 12.2908 2.1012 13.2041 2.1012 14.3307V36.1648C2.1012 37.2914 3.01858 38.2047 4.15022 38.2047H36.0824C37.2141 38.2047 38.1314 37.2914 38.1314 36.1648V14.3307C38.1314 13.2041 37.2141 12.2908 36.0824 12.2908Z" fill="url(#paint0_linear_4_571)"/>
<path d="M23.0553 12.2908H17.1621V38.2047H23.0553V12.2908Z" fill="url(#paint1_linear_4_571)"/>
<path d="M33.2536 1.50388C32.211 -1.80869 22.1562 3.46253 20.216 5.98984C18.2848 3.46253 8.46583 -1.97116 7.17839 1.50388C6.84293 2.42454 6.30801 3.37227 6.57094 4.30196C7.68611 8.24635 18.0672 8.815 20.216 7.41596C22.3648 8.815 32.7459 8.23733 33.8611 4.30196C34.124 3.3813 33.5437 2.44259 33.2536 1.50388Z" fill="url(#paint2_linear_4_571)"/>
<path opacity="0.1" d="M30.7158 3.53494L20.5964 7.47076" stroke="#3A3A3A" stroke-width="1.51875" stroke-miterlimit="10" stroke-linecap="round"/>
<path d="M37.7054 7.3248H2.62715C1.66075 7.3248 0.877319 8.10473 0.877319 9.06683V12.3343C0.877319 13.2964 1.66075 14.0763 2.62715 14.0763H37.7054C38.6718 14.0763 39.4552 13.2964 39.4552 12.3343V9.06683C39.4552 8.10473 38.6718 7.3248 37.7054 7.3248Z" fill="url(#paint3_linear_4_571)"/>
<path opacity="0.1" d="M9.51697 3.38025L19.6454 7.31606" stroke="#3A3A3A" stroke-width="1.51875" stroke-miterlimit="10" stroke-linecap="round"/>
<path d="M23.3707 7.16309H17.0597V14.0778H23.3707V7.16309Z" fill="url(#paint4_linear_4_571)"/>
<path opacity="0.2" d="M38.1771 15.467C21.0686 14.6637 10.6331 17.1639 2.14685 22.9947V14.0679H38.1771V15.4579V15.467Z" fill="#3A3A3A"/>
<path d="M29.093 15.2851L23.4899 7.26096C23.4083 7.15265 23.236 7.12557 23.0819 7.21583L20.2985 8.82248C20.2985 8.82248 20.226 8.87663 20.1988 8.90371C20.1716 8.87663 20.1444 8.84053 20.099 8.82248L17.3156 7.21583C17.1705 7.1346 16.9892 7.15265 16.9076 7.26096L11.3045 15.2851C11.1776 15.4657 11.4043 15.7184 11.6581 15.6913C12.1296 15.6372 12.6282 15.574 13.2176 15.5018C13.2901 15.4927 13.3717 15.5018 13.4442 15.5469C13.5168 15.583 13.5621 15.6462 13.5893 15.7094L14.0607 17.0723C14.1423 17.298 14.4869 17.3702 14.6138 17.1896L20.1897 9.20157L25.7656 17.1896C25.8925 17.3702 26.237 17.298 26.3186 17.0723L26.7901 15.7094C26.8173 15.6462 26.8626 15.583 26.9352 15.5469C27.0077 15.5108 27.0893 15.4927 27.1618 15.5018C27.7511 15.574 28.2498 15.6281 28.7213 15.6913C28.9751 15.7184 29.1927 15.4657 29.0749 15.2851H29.093Z" fill="url(#paint5_linear_4_571)"/>
<path d="M34.0879 24.5375L34.4415 27.128C34.8042 29.7997 36.8713 31.9298 39.5459 32.3902L41.3774 32.7061L39.5459 33.022C36.8713 33.4823 34.8132 35.6125 34.4415 38.2842L34.0879 40.8747L33.7343 38.2842C33.3717 35.6125 31.3045 33.4823 28.6299 33.022L26.7985 32.7061L28.6299 32.3902C31.3045 31.9298 33.3626 29.7997 33.7343 27.128L34.0879 24.5375Z" fill="#F4AEFF"/>
<path d="M4.96714 5.03281L5.19382 6.53131C5.42051 7.97564 6.52675 9.13111 7.97755 9.41095L9.05659 9.61857L7.97755 9.8262C6.53582 10.106 5.42051 11.2615 5.19382 12.7058L4.96714 14.2043L4.74045 12.7058C4.51376 11.2615 3.40752 10.106 1.95672 9.8262L0.877686 9.61857L1.95672 9.41095C3.39845 9.13111 4.51376 7.97564 4.74045 6.53131L4.96714 5.03281Z" fill="#F4AEFF"/>
</g>
<defs>
<linearGradient id="paint0_linear_4_571" x1="-22.7773" y1="25.2522" x2="69.2295" y2="25.2522" gradientUnits="userSpaceOnUse">
<stop stop-color="#2500AA"/>
<stop offset="1" stop-color="#AD93FF"/>
</linearGradient>
<linearGradient id="paint1_linear_4_571" x1="5.10368" y1="25.2522" x2="35.0503" y2="25.2522" gradientUnits="userSpaceOnUse">
<stop stop-color="#007CF4"/>
<stop offset="1" stop-color="#93C5FF"/>
</linearGradient>
<linearGradient id="paint2_linear_4_571" x1="-13.602" y1="4.23878" x2="48.9658" y2="4.23878" gradientUnits="userSpaceOnUse">
<stop stop-color="#007CF4"/>
<stop offset="1" stop-color="#93C5FF"/>
</linearGradient>
<linearGradient id="paint3_linear_4_571" x1="-16.3762" y1="10.7006" x2="61.106" y2="10.7006" gradientUnits="userSpaceOnUse">
<stop stop-color="#2500AA"/>
<stop offset="1" stop-color="#AD93FF"/>
</linearGradient>
<linearGradient id="paint4_linear_4_571" x1="10.1956" y1="10.6205" x2="33.4084" y2="10.6205" gradientUnits="userSpaceOnUse">
<stop stop-color="#007CF4"/>
<stop offset="1" stop-color="#93C5FF"/>
</linearGradient>
<linearGradient id="paint5_linear_4_571" x1="7.47847" y1="12.2343" x2="34.9046" y2="12.2343" gradientUnits="userSpaceOnUse">
<stop stop-color="#007CF4"/>
<stop offset="1" stop-color="#93C5FF"/>
</linearGradient>
<clipPath id="clip0_4_571">
<rect width="40.5" height="40.5" fill="white" transform="translate(0.875 0.375)"/>
</clipPath>
</defs>
</svg>
