<svg width="116" height="129" viewBox="0 0 116 129" fill="none" xmlns="http://www.w3.org/2000/svg">
<g filter="url(#filter0_dd_4_669)">
<rect x="1" y="1" width="114" height="126.512" rx="16" fill="#0F136B"/>
<path d="M32.6824 71.8396C32.5542 71.8404 32.4281 71.8075 32.3167 71.7446C31.3621 71.1922 24.2927 66.7597 24.0257 66.6244C23.9258 66.5779 23.8396 66.5063 23.7754 66.4166C23.7113 66.3269 23.6714 66.2221 23.6597 66.1125V59.8951C23.6572 59.7809 23.6838 59.668 23.737 59.567C23.7901 59.4659 23.8681 59.3801 23.9636 59.3175L24.0145 59.2883C24.6986 58.8639 26.988 57.4667 27.3503 57.2657C27.4333 57.2164 27.5279 57.1899 27.6244 57.1888C27.7149 57.1899 27.8038 57.2124 27.8842 57.2547C27.8842 57.2547 31.0877 59.3429 31.5779 59.5293C31.9218 59.6872 32.2967 59.7659 32.675 59.7596C33.1038 59.7686 33.5275 59.6652 33.904 59.4597C34.3827 59.2077 37.444 57.2659 37.4767 57.2659C37.5538 57.2193 37.6427 57.1952 37.7327 57.1963C37.8293 57.1968 37.9241 57.2234 38.0069 57.2732C38.4238 57.5034 41.2618 59.2407 41.3825 59.3175C41.4806 59.3767 41.5616 59.4605 41.6174 59.5606C41.6732 59.6606 41.7019 59.7735 41.7006 59.8881V66.1052C41.6896 66.215 41.6501 66.3201 41.586 66.4099C41.5219 66.4997 41.4354 66.5712 41.3351 66.6172C41.0682 66.7634 34.0207 71.1959 33.0479 71.7373C32.9372 71.803 32.8112 71.8383 32.6824 71.8396Z" fill="url(#paint0_linear_4_669)"/>
<path d="M32.6483 71.8386H32.685C32.813 71.8394 32.9394 71.8065 33.0505 71.7436C34.0051 71.1912 41.071 66.7587 41.3377 66.6234C41.438 66.5774 41.5246 66.506 41.5887 66.4161C41.6529 66.3263 41.6924 66.2213 41.7035 66.1115V59.8941C41.7047 59.7889 41.6809 59.6849 41.6341 59.5907L32.6483 64.5242V71.8386Z" fill="url(#paint1_linear_4_669)"/>
<path d="M32.6146 71.7503H32.5783C32.4516 71.7511 32.3266 71.7185 32.2167 71.6563C31.2723 71.1098 24.2816 66.7245 24.0177 66.5907C23.9185 66.5452 23.8329 66.4745 23.7694 66.3856C23.7059 66.2968 23.6668 66.1928 23.6559 66.0842V59.933C23.6547 59.829 23.6782 59.7261 23.7245 59.6329L32.6146 64.5138V71.7503Z" fill="url(#paint2_linear_4_669)"/>
<path d="M47.117 59.7489H48.8453V68.0642H51.8242V69.7056H47.1243L47.117 59.7489ZM55.8265 62.2434C56.2782 62.2378 56.725 62.3367 57.132 62.5323C57.5391 62.728 57.8954 63.0152 58.1731 63.3714V62.3916H59.7853V69.7201H58.1731V68.7401C57.8954 69.0964 57.5391 69.3835 57.132 69.5792C56.7248 69.7749 56.278 69.8738 55.8263 69.8681C53.8162 69.8681 52.2906 68.1508 52.2906 66.054C52.2906 63.957 53.8164 62.2434 55.8265 62.2434ZM56.1194 63.7112C54.8142 63.7112 53.9501 64.738 53.9501 66.054C53.9501 67.37 54.8285 68.4004 56.1194 68.4004C57.4101 68.4004 58.2887 67.3735 58.2887 66.054C58.2887 64.7343 57.4244 63.7112 56.1194 63.7112ZM61.0399 68.4474L64.883 63.856H61.0976V62.3916H66.9654V63.6823L63.1369 68.2559H67.0522V69.7201H61.0399V68.4474ZM71.1521 62.2434C71.6037 62.2378 72.0505 62.3367 72.4575 62.5323C72.8646 62.728 73.2208 63.0152 73.4985 63.3714V62.3916H75.1109V69.7201H73.4985V68.7401C73.2208 69.0963 72.8646 69.3835 72.4575 69.5792C72.0505 69.7749 71.6037 69.8737 71.1521 69.8681C69.1419 69.8681 67.6197 68.1508 67.6197 66.054C67.6197 63.957 69.1421 62.2434 71.1521 62.2434ZM71.445 63.7112C70.1396 63.7112 69.2756 64.738 69.2756 66.054C69.2756 67.37 70.1543 68.4004 71.445 68.4004C72.7357 68.4004 73.6141 67.3735 73.6141 66.054C73.6141 64.7343 72.7502 63.7112 71.445 63.7112ZM79.717 62.2434C80.1681 62.2375 80.6145 62.3363 81.021 62.532C81.4275 62.7278 81.7831 63.0151 82.0598 63.3714V59.1598H83.672V69.7201H82.0598V68.7405C81.7831 69.0968 81.4275 69.3841 81.021 69.5799C80.6145 69.7756 80.1681 69.8744 79.717 69.8685C77.7068 69.8685 76.181 68.1512 76.181 66.0544C76.181 63.9574 77.7068 62.2434 79.717 62.2434ZM80.0096 63.7115C78.7044 63.7115 77.8405 64.7384 77.8405 66.0544C77.8405 67.3704 78.7227 68.4007 80.0096 68.4007C81.297 68.4007 82.179 67.3739 82.179 66.0544C82.179 64.7347 81.3149 63.7115 80.0096 63.7115ZM88.2781 62.2434C88.7292 62.2375 89.1756 62.3363 89.5821 62.532C89.9886 62.7277 90.3442 63.0151 90.6209 63.3714V62.3916H92.2298V69.7201H90.6139V68.7401C90.3371 69.0965 89.9815 69.3838 89.5749 69.5795C89.1684 69.7753 88.722 69.874 88.2708 69.8681C86.2607 69.8681 84.7351 68.1508 84.7351 66.054C84.7351 63.957 86.2679 62.2434 88.2781 62.2434ZM88.5712 63.7112C87.2658 63.7112 86.4016 64.738 86.4016 66.054C86.4016 67.37 87.2838 68.4004 88.5712 68.4004C89.858 68.4004 90.7403 67.3735 90.7403 66.054C90.7403 64.7343 89.876 63.7112 88.5712 63.7112Z" fill="white"/>
</g>
<defs>
<filter id="filter0_dd_4_669" x="0.107143" y="0.107143" width="115.786" height="128.744" filterUnits="userSpaceOnUse" color-interpolation-filters="sRGB">
<feFlood flood-opacity="0" result="BackgroundImageFix"/>
<feColorMatrix in="SourceAlpha" type="matrix" values="0 0 0 0 0 0 0 0 0 0 0 0 0 0 0 0 0 0 127 0" result="hardAlpha"/>
<feOffset dy="0.446429"/>
<feGaussianBlur stdDeviation="0.446429"/>
<feColorMatrix type="matrix" values="0 0 0 0 0.101961 0 0 0 0 0.101961 0 0 0 0 0.101961 0 0 0 0.05 0"/>
<feBlend mode="normal" in2="BackgroundImageFix" result="effect1_dropShadow_4_669"/>
<feColorMatrix in="SourceAlpha" type="matrix" values="0 0 0 0 0 0 0 0 0 0 0 0 0 0 0 0 0 0 127 0" result="hardAlpha"/>
<feOffset/>
<feGaussianBlur stdDeviation="0.446429"/>
<feColorMatrix type="matrix" values="0 0 0 0 0.101961 0 0 0 0 0.101961 0 0 0 0 0.101961 0 0 0 0.25 0"/>
<feBlend mode="normal" in2="effect1_dropShadow_4_669" result="effect2_dropShadow_4_669"/>
<feBlend mode="normal" in="SourceGraphic" in2="effect2_dropShadow_4_669" result="shape"/>
</filter>
<linearGradient id="paint0_linear_4_669" x1="23.6487" y1="57.3227" x2="41.5242" y2="57.1843" gradientUnits="userSpaceOnUse">
<stop stop-color="#FFB900"/>
<stop offset="0.338" stop-color="#F38000"/>
<stop offset="0.567" stop-color="#F83C72"/>
<stop offset="0.78" stop-color="#FC1CBE"/>
<stop offset="0.93" stop-color="#FE08ED"/>
<stop offset="1" stop-color="#FF00FF"/>
</linearGradient>
<linearGradient id="paint1_linear_4_669" x1="28.6731" y1="70.3097" x2="46.898" y2="60.2189" gradientUnits="userSpaceOnUse">
<stop stop-color="#EE0A3F"/>
<stop offset="1" stop-color="#EE0A3F" stop-opacity="0"/>
</linearGradient>
<linearGradient id="paint2_linear_4_669" x1="30.4442" y1="67.6795" x2="21.6375" y2="60.5852" gradientUnits="userSpaceOnUse">
<stop stop-color="#ED6600"/>
<stop offset="1" stop-color="#F98200"/>
</linearGradient>
</defs>
</svg>
