<svg width="199" height="107" viewBox="0 0 199 107" fill="none" xmlns="http://www.w3.org/2000/svg">
<g filter="url(#filter0_dd_4_664)">
<rect x="1" y="1" width="197" height="104.186" rx="16" fill="#EE4E2C"/>
<g clip-path="url(#clip0_4_664)">
<path d="M63.8709 60.511C64.1965 57.8425 62.4775 56.1404 57.9401 54.6923C55.7423 53.9424 54.707 52.9606 54.7312 51.6069C54.8229 50.1084 56.2193 49.0154 58.071 48.9789C59.3545 49.0045 60.7801 49.318 62.1664 50.2429C62.3312 50.3467 62.4471 50.3304 62.5408 50.1887C62.6692 49.9822 62.9876 49.4865 63.0947 49.3088C63.1673 49.1927 63.1814 49.0428 62.9978 48.9091C62.735 48.7141 61.998 48.3194 61.6023 48.1539C60.5272 47.7038 59.3206 47.4204 58.034 47.423C55.3234 47.4344 53.1873 49.1492 53.0091 51.4376C52.8925 53.0888 53.71 54.4302 55.4653 55.4528C55.8372 55.6695 57.8509 56.4704 58.6518 56.7197C61.1712 57.5041 62.4794 58.9103 62.1716 60.5498C61.8921 62.0373 60.3271 62.9979 58.1699 63.0271C56.4595 62.9619 54.9203 62.2647 53.7268 61.3364C53.6966 61.3139 53.5467 61.1977 53.5263 61.182C53.3787 61.0665 53.2177 61.074 53.1197 61.2235C53.047 61.3335 52.5858 61.9996 52.4694 62.1745C52.36 62.3285 52.4185 62.4132 52.5321 62.5076C53.0309 62.9233 53.6925 63.378 54.1437 63.6081C55.3833 64.2401 56.7289 64.5865 58.1604 64.6408C59.0809 64.7032 60.2422 64.5054 61.1085 64.1377C62.6648 63.4772 63.6698 62.1577 63.8709 60.511ZM58.2716 36.989C55.3346 36.989 52.9406 39.7572 52.8285 43.2221H63.7148C63.6027 39.7572 61.2087 36.989 58.2716 36.989ZM69.422 69.0818L69.3097 69.0827L46.8921 69.0793H46.8915C45.3667 69.0223 44.2455 67.7864 44.0925 66.252L44.0775 65.9755L43.0752 43.9242L43.0753 43.9241C43.0739 43.9074 43.0734 43.8906 43.0734 43.8736C43.0734 43.5178 43.3585 43.2287 43.7128 43.2223L50.779 43.2221C50.9522 38.6469 54.2405 34.9987 58.2716 34.9987C62.3027 34.9987 65.591 38.6469 65.7643 43.2221H72.8103H72.8203C73.1803 43.2221 73.4718 43.5137 73.4718 43.8736C73.4718 43.8849 73.4716 43.896 73.4711 43.9071V43.9075L72.3728 66.0457L72.3628 66.2332C72.23 67.7867 70.9734 69.0398 69.422 69.0818ZM85.5813 54.3928C90.4091 55.8377 92.3082 57.645 92.0046 60.5464C91.8175 62.3338 90.7487 63.786 89.0735 64.53C88.15 64.9401 86.9131 65.1731 85.9262 65.1237C84.4072 65.0926 82.9712 64.7507 81.6418 64.1034C81.1615 63.8697 80.4538 63.4053 79.9032 62.9635L79.9013 62.9617C79.6439 62.7452 79.6133 62.6044 79.7893 62.3433C79.8349 62.2725 79.9182 62.1462 80.1109 61.8556C80.2763 61.6063 80.4413 61.3556 80.4494 61.3433C80.6554 61.0323 80.873 61.0323 81.1733 61.2387C81.1754 61.2403 81.2025 61.2604 81.2798 61.3178C81.3412 61.3633 81.379 61.3913 81.3859 61.3963C82.7527 62.419 84.3312 62.9954 85.9046 63.028C88.0578 62.9615 89.5761 61.9949 89.8203 60.5604C90.0888 58.9825 88.7851 57.6299 86.2387 56.8873C85.3477 56.6275 83.4011 55.8978 82.8578 55.6122C80.9477 54.5461 80.0268 53.097 80.1227 51.294C80.2737 48.798 82.5612 46.9029 85.4824 46.8398C86.7663 46.8149 88.0511 47.0565 89.289 47.5482C89.7352 47.7255 90.5168 48.1299 90.7988 48.3309C91.1264 48.5622 91.1264 48.7219 90.9667 49.0209C90.9442 49.0598 90.8591 49.183 90.6385 49.4984L90.6377 49.4994C90.405 49.8322 90.3351 49.9328 90.3146 49.9669C90.1231 50.215 89.9625 50.2917 89.6346 50.0937C88.3455 49.2678 87.0385 48.878 85.561 48.8743C83.74 48.942 82.4025 50.0215 82.3383 51.4531C82.3388 52.7431 83.3611 53.68 85.5813 54.3928ZM99.1232 53.6694C102.068 53.6694 104.501 56.0472 104.512 58.9607V64.6525C104.512 64.9809 104.427 65.0583 104.105 65.0583H102.752C102.426 65.0583 102.345 64.9809 102.345 64.6525V58.9776C102.338 57.2207 100.898 55.7993 99.1232 55.7993C97.3532 55.7993 95.9151 57.214 95.9014 58.9652V64.6525C95.9014 64.9352 95.7902 65.0584 95.4948 65.0584H94.1384C93.816 65.0584 93.7318 64.939 93.7318 64.6525V47.2392C93.7318 46.9403 93.816 46.8333 94.1384 46.8333H95.4948C95.7854 46.8333 95.9014 46.9461 95.9014 47.2392V54.7331C96.8279 54.048 97.9517 53.6694 99.1232 53.6694ZM112.064 63.0072C114.103 63.0072 115.755 61.3883 115.755 59.392C115.755 57.3957 114.102 55.7767 112.064 55.7767C110.025 55.7767 108.372 57.3957 108.372 59.392C108.372 61.3883 110.025 63.0072 112.064 63.0072ZM112.065 53.6812C115.284 53.6812 117.894 56.2387 117.894 59.3948C117.894 62.5508 115.284 65.1084 112.065 65.1084C108.846 65.1084 106.235 62.5508 106.235 59.3948C106.235 56.2387 108.845 53.6812 112.065 53.6812ZM148.079 58.0684H154.537C154.072 56.7506 152.721 55.7657 151.279 55.7657C149.784 55.7657 148.503 56.6862 148.079 58.0684ZM156.138 60.1635C156.129 60.1635 156.119 60.1632 156.113 60.1629H147.946C148.154 61.2117 148.874 62.1048 149.87 62.6044C150.128 62.7277 150.409 62.83 150.709 62.9106C152.168 63.2159 153.843 62.9935 155.119 61.8597C155.137 61.8396 155.172 61.8178 155.209 61.7849C155.423 61.5962 155.574 61.6439 155.741 61.8533C155.741 61.8533 155.981 62.1864 156.409 62.8678C156.594 63.1552 156.58 63.2933 156.271 63.6118C156.258 63.6246 156.234 63.6473 156.198 63.6786C156.14 63.7301 156.07 63.7874 155.988 63.849C155.756 64.0239 155.478 64.1988 155.155 64.3616C153.959 64.9639 152.485 65.2474 150.734 65.0365C150.676 65.0277 150.629 65.0204 150.584 65.0128V65.0159L150.485 64.9973C149.204 64.7588 148.054 64.1208 147.208 63.1895C147.204 63.1848 147.204 63.1845 147.202 63.183C146.443 62.3464 145.955 61.3052 145.802 60.1629H145.801L145.792 60.0886C145.765 59.8561 145.751 59.6217 145.751 59.3859C145.751 56.231 148.225 53.6723 151.278 53.6723C154.331 53.6723 156.804 56.2309 156.804 59.3859C156.804 59.4103 156.804 59.4214 156.804 59.4281C156.805 59.4432 156.806 59.4588 156.806 59.4761C156.806 59.8436 156.525 60.1467 156.168 60.1628C156.158 60.1632 156.148 60.1635 156.138 60.1635ZM125.415 62.9777C127.417 62.9777 129.04 61.3591 129.04 59.3624C129.04 57.3659 127.417 55.7472 125.415 55.7472C123.447 55.7472 121.84 57.3131 121.791 59.2686V59.455C121.841 61.4124 123.448 62.9777 125.415 62.9777ZM125.416 53.6516C128.58 53.6516 131.145 56.2097 131.145 59.3652C131.145 62.5209 128.58 65.0791 125.416 65.0791C124.075 65.0791 122.806 64.6175 121.791 63.7896V70.4979C121.791 70.799 121.707 70.9037 121.385 70.9037H120.094C119.772 70.9037 119.688 70.7966 119.688 70.4979V54.0573C119.688 53.7419 119.772 53.6516 120.094 53.6516H121.385C121.707 53.6516 121.791 53.7501 121.791 54.0573V54.9408C122.806 54.1131 124.075 53.6516 125.416 53.6516ZM135.283 58.0684H141.741C141.277 56.7506 139.926 55.7657 138.484 55.7657C136.988 55.7657 135.707 56.6862 135.283 58.0684ZM144.009 59.3859C144.009 59.4103 144.009 59.4214 144.008 59.4281C144.01 59.4432 144.01 59.4588 144.01 59.4761C144.01 59.8436 143.729 60.1467 143.373 60.1628C143.362 60.1632 143.352 60.1635 143.343 60.1635C143.333 60.1635 143.323 60.1632 143.317 60.1629H135.151C135.358 61.2117 136.078 62.1048 137.074 62.6044C137.332 62.7277 137.613 62.83 137.913 62.9106C139.372 63.2159 141.047 62.9935 142.323 61.8597C142.342 61.8396 142.376 61.8178 142.414 61.7849C142.627 61.5962 142.778 61.6439 142.946 61.8533C142.946 61.8533 143.185 62.1864 143.613 62.8678C143.798 63.1552 143.784 63.2933 143.475 63.6118C143.463 63.6246 143.438 63.6473 143.403 63.6786C143.344 63.7301 143.274 63.7874 143.192 63.849C142.96 64.0239 142.683 64.1988 142.359 64.3616C141.164 64.9639 139.69 65.2474 137.938 65.0365C137.88 65.0277 137.834 65.0204 137.789 65.0128V65.0159L137.689 64.9973C136.409 64.7588 135.259 64.1208 134.413 63.1895C134.408 63.1848 134.408 63.1845 134.407 63.183C133.648 62.3464 133.159 61.3052 133.007 60.1629H133.005L132.996 60.0886C132.969 59.8561 132.955 59.6217 132.955 59.3859C132.955 56.231 135.429 53.6723 138.482 53.6723C141.535 53.6723 144.009 56.2309 144.009 59.3859Z" fill="white"/>
</g>
</g>
<defs>
<filter id="filter0_dd_4_664" x="0.127366" y="0.127366" width="198.745" height="106.368" filterUnits="userSpaceOnUse" color-interpolation-filters="sRGB">
<feFlood flood-opacity="0" result="BackgroundImageFix"/>
<feColorMatrix in="SourceAlpha" type="matrix" values="0 0 0 0 0 0 0 0 0 0 0 0 0 0 0 0 0 0 127 0" result="hardAlpha"/>
<feOffset dy="0.436317"/>
<feGaussianBlur stdDeviation="0.436317"/>
<feColorMatrix type="matrix" values="0 0 0 0 0.101961 0 0 0 0 0.101961 0 0 0 0 0.101961 0 0 0 0.05 0"/>
<feBlend mode="normal" in2="BackgroundImageFix" result="effect1_dropShadow_4_664"/>
<feColorMatrix in="SourceAlpha" type="matrix" values="0 0 0 0 0 0 0 0 0 0 0 0 0 0 0 0 0 0 127 0" result="hardAlpha"/>
<feOffset/>
<feGaussianBlur stdDeviation="0.436317"/>
<feColorMatrix type="matrix" values="0 0 0 0 0.101961 0 0 0 0 0.101961 0 0 0 0 0.101961 0 0 0 0.25 0"/>
<feBlend mode="normal" in2="effect1_dropShadow_4_664" result="effect2_dropShadow_4_664"/>
<feBlend mode="normal" in="SourceGraphic" in2="effect2_dropShadow_4_664" result="shape"/>
</filter>
<clipPath id="clip0_4_664">
<rect width="113.893" height="36" fill="white" transform="translate(42.9993 34.9992)"/>
</clipPath>
</defs>
</svg>
